<svg xmlns="http://www.w3.org/2000/svg" viewBox="0 0 135.73 141.96"><defs><style>.cls-1{fill:#e20613;}</style></defs><g id="Calque_2" data-name="Calque 2"><g id="Calque_1-2" data-name="Calque 1"><path class="cls-1" d="M79.39,89.36l26.38.17,1.53,18.9c-2.54-.07-28.67-1.21-43.4-23.49-11.09-16.77-8.39-34.41-7.66-38.47L114.62,46l1,15.15,20.09-37.79-68.26-.68A61,61,0,0,1,117.34,9.87,81.65,81.65,0,0,0,79.05,0,79.89,79.89,0,0,0,45,7.32C14.47,21.74,4.5,52,3.47,55.32c-11.29,36.21,8.35,65.91,10.89,69.62A77.74,77.74,0,0,1,19,78.3a76.82,76.82,0,0,0,10.72,30.13c3.14,5.06,12,18.95,29.79,27.4A67.9,67.9,0,0,0,81.26,142a20.18,20.18,0,0,1-11.07-7c-1.35-1.75-4.68-6-3.4-10.55a9.55,9.55,0,0,1,2.55-4.09,11.25,11.25,0,0,1,6.3-3.06H93.17l15.66-.17q12.44-24.26,24.85-48.51l-43.74-.17Q84.66,78.9,79.39,89.36ZM32.58,59.41A65.59,65.59,0,0,1,44.15,21.62a81.91,81.91,0,0,0-20.25,18A84.48,84.48,0,0,0,6.19,83.07c0-5,.23-33.38,23.15-55.66C50.34,7,75.77,5.89,81.43,5.79c-3.07.91-31.14,9.73-41,37.62-8.49,23.94,0,52,21.44,69.27C58.71,110.43,33.19,91.55,32.58,59.41Z"/></g></g></svg>